<svg width="18" height="24" viewBox="0 0 18 24" fill="none" xmlns="http://www.w3.org/2000/svg">
<path d="M12 9C12 10.933 10.433 12.5 8.5 12.5C6.567 12.5 5 10.933 5 9C5 7.067 6.567 5.5 8.5 5.5C10.433 5.5 12 7.067 12 9Z" fill="url(#paint0_linear_1230_3368)"/>
<path d="M8.8 0C6.4661 0 4.22778 0.927615 2.57746 2.57878C0.927141 4.22995 0 6.46941 0 8.80451C0 12.7062 5.6145 20.9343 7.85416 23.5846C7.96446 23.7148 8.10176 23.8194 8.25654 23.8911C8.41131 23.9628 8.57984 24 8.75041 24C8.92098 24 9.08951 23.9628 9.24428 23.8911C9.39905 23.8194 9.53636 23.7148 9.64666 23.5846C11.8837 20.9343 17.6 12.7062 17.6 8.80451C17.6 7.64829 17.3724 6.50338 16.9301 5.43517C16.4879 4.36696 15.8397 3.39636 15.0225 2.57878C14.2054 1.76121 13.2353 1.11267 12.1676 0.670204C11.0999 0.227736 9.95563 0 8.8 0ZM8.8 11.7396C8.2198 11.7396 7.65263 11.5674 7.17021 11.2449C6.68779 10.9224 6.31179 10.464 6.08975 9.92771C5.86772 9.3914 5.80962 8.80126 5.92282 8.23191C6.03601 7.66257 6.3154 7.13959 6.72567 6.72911C7.13593 6.31864 7.65864 6.0391 8.22769 5.92585C8.79675 5.8126 9.38659 5.87073 9.92262 6.09287C10.4587 6.31502 10.9168 6.69121 11.2392 7.17388C11.5615 7.65655 11.7336 8.22401 11.7336 8.80451C11.7336 9.58294 11.4245 10.3295 10.8743 10.8799C10.3242 11.4303 9.57803 11.7396 8.8 11.7396Z" fill="url(#paint1_linear_1230_3368)"/>
<defs>
<linearGradient id="paint0_linear_1230_3368" x1="6.87273" y1="6.31395" x2="10.1285" y2="12.0116" gradientUnits="userSpaceOnUse">
<stop stop-color="white"/>
<stop offset="1" stop-color="#FFB2B2"/>
</linearGradient>
<linearGradient id="paint1_linear_1230_3368" x1="4" y1="2" x2="14" y2="21.5" gradientUnits="userSpaceOnUse">
<stop stop-color="#FD3018"/>
<stop offset="1" stop-color="#E61E14"/>
</linearGradient>
</defs>
</svg>
