<svg width="24" height="24" viewBox="0 0 24 24" fill="none" xmlns="http://www.w3.org/2000/svg">
<g clip-path="url(#clip0_658_2978)">
<path opacity="0.4" d="M11.8531 4.03381C11.9407 3.97015 12.0593 3.97015 12.1469 4.03381L20.4819 10.0895C20.5696 10.1532 20.6062 10.266 20.5728 10.369L21.2861 10.6008L20.5728 10.3691L17.3891 20.1674C17.3556 20.2704 17.2596 20.3402 17.1513 20.3402H6.84869C6.74038 20.3402 6.64439 20.2704 6.61093 20.1674L3.42724 10.3691C3.39377 10.266 3.43044 10.1532 3.51806 10.0895L11.8531 4.03381Z" stroke="#333333" stroke-width="1.5"/>
<circle cx="12.5" cy="4.5" r="2.75" fill="#333333" stroke="white" stroke-width="0.5"/>
<circle cx="3.5" cy="10.5" r="2.75" fill="#333333" stroke="white" stroke-width="0.5"/>
<circle cx="6.5" cy="20.5" r="2.75" fill="#333333" stroke="white" stroke-width="0.5"/>
<circle cx="17.5" cy="20.5" r="2.75" fill="#333333" stroke="white" stroke-width="0.5"/>
<circle cx="20.5" cy="10.5" r="2.75" fill="#333333" stroke="white" stroke-width="0.5"/>
</g>
<defs>
<clipPath id="clip0_658_2978">
<rect width="24" height="24" fill="white"/>
</clipPath>
</defs>
</svg>
