<?xml version="1.0" standalone="no"?>
<!DOCTYPE svg PUBLIC "-//W3C//DTD SVG 20010904//EN"
 "http://www.w3.org/TR/2001/REC-SVG-20010904/DTD/svg10.dtd">
<svg version="1.0" xmlns="http://www.w3.org/2000/svg"
 width="348.000000pt" height="348.000000pt" viewBox="0 0 348.000000 348.000000"
 preserveAspectRatio="xMidYMid meet">

<g transform="translate(0.000000,348.000000) scale(0.100000,-0.100000)"
fill="#000000" stroke="none">
<path d="M1642 3469 c-282 -34 -529 -209 -652 -463 -111 -230 -112 -502 0
-731 119 -248 370 -430 633 -461 l57 -7 0 -871 c0 -479 3 -881 6 -892 7 -26
47 -46 71 -37 43 16 42 -1 43 919 l0 881 61 7 c257 29 510 215 629 461 61 124
81 217 81 365 0 148 -20 241 -81 366 -153 317 -498 505 -848 463z m-101 -443
c75 -50 98 -144 57 -226 -67 -132 -248 -132 -316 0 -84 163 105 327 259 226z"/>
</g>
</svg>
